<?xml version="1.0" encoding="utf-8"?>
<!-- Generator: Adobe Illustrator 19.1.1, SVG Export Plug-In . SVG Version: 6.00 Build 0)  -->
<svg version="1.1" id="Layer_1" xmlns="http://www.w3.org/2000/svg" xmlns:xlink="http://www.w3.org/1999/xlink" x="0px" y="0px"
	 width="270.7px" height="54px" viewBox="0 0 270.7 54" enable-background="new 0 0 270.7 54" xml:space="preserve">
<g>
	<rect x="63.8" fill-rule="evenodd" clip-rule="evenodd" fill="#004F9E" width="206.9" height="54"/>
	<rect y="0" fill-rule="evenodd" clip-rule="evenodd" fill="#E20512" width="55" height="54"/>
	<path fill="#FFFFFF" d="M28.9,42.8l1.1-5.2h1.5l-0.9,4H33l-0.2,1.1H28.9z M24.2,42.8l1.1-5.2h4l-0.2,1h-2.5l-0.2,1h2.3l-0.2,1.1
		h-2.3l-0.2,1h2.5l-0.2,1.1H24.2z M21.9,42.8l1.1-5.2h1.5l-1.1,5.2H21.9z M37.4,34l1.1-5.2h1.5L38.9,34H37.4z M34.9,32l-0.2-2.2
		L33.6,32H34.9z M31,34l3.1-5.2h1.8l1,5.2h-1.6l-0.2-1h-2l-0.6,1H31z M25.4,34l1.1-5.2h2.1l0.9,3.7l0.8-3.7h1.3L30.5,34h-2l-1-3.9
		L26.7,34H25.4z M20.6,34l1.1-5.2h4l-0.2,1H23l-0.2,1h2.3L24.8,32h-2.3l-0.2,1h2.5L24.6,34H20.6z M16.2,30.6
		c0.1-0.6,0.3-1.1,0.8-1.4c0.5-0.3,1.1-0.4,1.8-0.4c0.1,0,0.1,0,0.2,0c0.1,0,0.1,0,0.2,0c0.4,0,0.7,0.1,1,0.3
		c0.3,0.2,0.5,0.5,0.5,0.9c0,0.1,0,0.2,0,0.2c0,0.1,0,0.2-0.1,0.3l-1.5,0c0,0,0-0.1,0-0.1c0,0,0-0.1,0-0.1c0-0.2-0.1-0.3-0.2-0.4
		c-0.1-0.1-0.3-0.1-0.4-0.1c0,0,0,0,0,0c0,0,0,0,0,0c-0.2,0-0.3,0.1-0.4,0.2c-0.1,0.1-0.2,0.2-0.2,0.4c0,0.1,0.1,0.3,0.4,0.4
		c0.3,0.1,0.6,0.2,1,0.3c0.3,0.1,0.6,0.2,0.7,0.3c0.2,0.1,0.3,0.3,0.3,0.4c0,0.1,0,0.1,0.1,0.2c0,0.1,0,0.1,0,0.2
		c0,0.5-0.2,1-0.7,1.4c-0.4,0.4-1.1,0.6-2,0.6c-0.8,0-1.3-0.1-1.5-0.4c-0.2-0.3-0.4-0.6-0.4-0.9c0,0,0-0.1,0-0.1c0,0,0-0.1,0-0.1
		c0,0,0-0.1,0-0.1c0,0,0-0.1,0-0.1l1.5,0c0,0,0,0.1,0,0.1c0,0,0,0.1,0,0.1c0,0.2,0.1,0.3,0.1,0.5c0.1,0.1,0.3,0.2,0.5,0.2
		c0,0,0.1,0,0.2,0c0.1,0,0.1,0,0.2-0.1c0.1,0,0.2-0.1,0.3-0.2c0.1-0.1,0.2-0.2,0.2-0.3c0,0,0,0,0,0c0,0,0,0,0,0
		c0-0.1-0.1-0.2-0.3-0.3C18.2,32.1,18,32,17.8,32c-0.1,0-0.3-0.1-0.4-0.1c-0.1,0-0.2-0.1-0.3-0.1c0,0,0,0,0,0c0,0,0,0,0,0
		c0,0,0,0,0,0s0,0,0,0c0,0-0.1,0-0.1-0.1c-0.1,0-0.1,0-0.2-0.1c-0.1-0.1-0.3-0.2-0.4-0.3C16.2,31.2,16.2,30.9,16.2,30.6L16.2,30.6z
		 M34,25.3l1.1-5.2h1.5l-1.1,5.2H34z M29.4,21.8c0.1-0.6,0.3-1.1,0.8-1.4c0.5-0.3,1.1-0.4,1.8-0.4c0.1,0,0.1,0,0.2,0
		c0.1,0,0.1,0,0.2,0c0.4,0,0.7,0.1,1,0.3c0.3,0.2,0.5,0.5,0.5,0.9c0,0.1,0,0.2,0,0.2c0,0.1,0,0.2-0.1,0.3l-1.5,0c0,0,0-0.1,0-0.1
		c0,0,0-0.1,0-0.1c0-0.2-0.1-0.3-0.2-0.4C32,21.1,31.9,21,31.7,21c0,0,0,0,0,0s0,0,0,0c-0.2,0-0.3,0.1-0.4,0.2
		c-0.1,0.1-0.2,0.2-0.2,0.4c0,0.1,0.1,0.3,0.4,0.4c0.3,0.1,0.6,0.2,1,0.3c0.3,0.1,0.6,0.2,0.7,0.3c0.2,0.1,0.3,0.3,0.3,0.4
		c0,0.1,0,0.1,0.1,0.2c0,0.1,0,0.1,0,0.2c0,0.5-0.2,1-0.7,1.4c-0.4,0.4-1.1,0.6-2,0.6c-0.8,0-1.3-0.1-1.5-0.4
		C29.1,24.7,29,24.4,29,24c0,0,0-0.1,0-0.1c0,0,0-0.1,0-0.1c0,0,0-0.1,0-0.1c0,0,0-0.1,0-0.1l1.5,0c0,0,0,0.1,0,0.1s0,0.1,0,0.1
		c0,0.2,0,0.3,0.1,0.5c0.1,0.1,0.3,0.2,0.5,0.2c0,0,0.1,0,0.2,0c0.1,0,0.1,0,0.2-0.1c0.1,0,0.2-0.1,0.3-0.2c0.1-0.1,0.2-0.2,0.2-0.3
		c0,0,0,0,0,0s0,0,0,0c0-0.1-0.1-0.2-0.3-0.3c-0.2-0.1-0.4-0.2-0.6-0.2c-0.1,0-0.3-0.1-0.4-0.1c-0.1,0-0.2-0.1-0.3-0.1c0,0,0,0,0,0
		c0,0,0,0,0,0c0,0,0,0,0,0c0,0,0,0,0,0c0,0-0.1,0-0.1-0.1c-0.1,0-0.1,0-0.2-0.1c-0.1-0.1-0.3-0.2-0.4-0.3
		C29.5,22.4,29.4,22.2,29.4,21.8L29.4,21.8z M24,25.3l1.1-5.2h4l-0.2,1h-2.5l-0.2,1h2.3l-0.2,1.1h-2.3l-0.2,1h2.5L28,25.3H24z
		 M19.5,21.8c0.1-0.6,0.3-1.1,0.8-1.4c0.5-0.3,1.1-0.4,1.8-0.4c0.1,0,0.1,0,0.2,0c0.1,0,0.1,0,0.2,0c0.4,0,0.7,0.1,1,0.3
		c0.3,0.2,0.5,0.5,0.5,0.9c0,0.1,0,0.2,0,0.2c0,0.1,0,0.2-0.1,0.3l-1.5,0c0,0,0-0.1,0-0.1c0,0,0-0.1,0-0.1c0-0.2-0.1-0.3-0.2-0.4
		C22.1,21.1,22,21,21.8,21c0,0,0,0,0,0c0,0,0,0,0,0c-0.2,0-0.3,0.1-0.4,0.2c-0.1,0.1-0.2,0.2-0.2,0.4c0,0.1,0.1,0.3,0.4,0.4
		c0.3,0.1,0.6,0.2,1,0.3c0.3,0.1,0.6,0.2,0.7,0.3c0.2,0.1,0.3,0.3,0.3,0.4c0,0.1,0,0.1,0.1,0.2c0,0.1,0,0.1,0,0.2
		c0,0.5-0.2,1-0.7,1.4c-0.4,0.4-1.1,0.6-2,0.6c-0.8,0-1.3-0.1-1.5-0.4C19.2,24.7,19,24.4,19,24c0,0,0-0.1,0-0.1c0,0,0-0.1,0-0.1
		c0,0,0-0.1,0-0.1c0,0,0-0.1,0-0.1l1.5,0c0,0,0,0.1,0,0.1s0,0.1,0,0.1c0,0.2,0,0.3,0.1,0.5c0.1,0.1,0.3,0.2,0.5,0.2c0,0,0.1,0,0.2,0
		c0.1,0,0.1,0,0.2-0.1c0.1,0,0.2-0.1,0.3-0.2C22,24,22,23.9,22,23.8c0,0,0,0,0,0s0,0,0,0c0-0.1-0.1-0.2-0.3-0.3
		c-0.2-0.1-0.4-0.2-0.6-0.2c-0.1,0-0.3-0.1-0.4-0.1c-0.1,0-0.2-0.1-0.3-0.1c0,0,0,0,0,0c0,0,0,0,0,0c0,0,0,0,0,0c0,0,0,0,0,0
		c0,0-0.1,0-0.1-0.1c-0.1,0-0.1,0-0.2-0.1c-0.1-0.1-0.3-0.2-0.4-0.3C19.6,22.4,19.5,22.2,19.5,21.8L19.5,21.8z M33.9,14.4l-0.2-2.2
		l-1.1,2.2H33.9z M30,16.5l3.1-5.2h1.8l1,5.2h-1.6l-0.2-1h-2l-0.6,1H30z M25.6,16.5l1.1-5.2h4l-0.2,1h-2.5l-0.2,1H30l-0.2,1.1h-2.3
		l-0.2,1h2.5l-0.2,1.1H25.6z M23.3,16.5l1.1-5.2h1.5l-1.1,5.2H23.3z M19,16.5l1.1-5.2h3.6l-0.2,1h-2.2L21,13.4h2.1l-0.2,1.1h-2.1
		l-0.4,2H19z"/>
	<path fill-rule="evenodd" clip-rule="evenodd" fill="#FFFFFF" d="M8.8,17.6h37.4v1.2H8.8V17.6z M8.8,44h37.4v1.2H8.8V44z M8.8,35.2
		h37.4v1.2H8.8V35.2z M8.8,26.4h37.4v1.2H8.8V26.4z M8.8,8.8h37.4V10H8.8V8.8z"/>
	<path fill-rule="evenodd" clip-rule="evenodd" fill="#FFFFFF" d="M63.8,17.6H77v1.2H63.8V17.6z M63.8,44H77v1.2H63.8V44z
		 M63.8,35.2H77v1.2H63.8V35.2z M63.8,26.4H77v1.2H63.8V26.4z M63.8,8.8H77V10H63.8V8.8z"/>
	<path fill="#FFFFFF" d="M234.9,45.2l7.9-36.4h10.3l-7.5,36.4H234.9z M217.7,30.6l-1.6-15.4l-7.9,15.4H217.7z M190,45.2l21.8-36.4
		h12.7l6.7,36.4h-11.5l-1.2-7.1h-14.3l-3.9,7.1H190z M150.3,45.2l7.5-36.4h14.6l6.3,26.1l5.9-26.1h9.5l-7.9,36.4h-14.3l-6.7-27.7
		l-5.5,27.7H150.3z M116.5,45.2l7.5-36.4h28.1l-1.6,7.1h-17.4l-1.6,7.1h16.2l-1.6,7.5H130l-1.6,7.1h17.9l-1.6,7.5H116.5z M84.8,21.1
		c0.4-4.5,2.3-7.8,5.8-9.9c3.5-2.1,7.6-3.1,12.4-3.1c0.4,0,0.8,0,1.2,0c0.4,0,0.8,0,1.2,0.1c2.6,0.2,4.9,0.9,7.1,2
		c2.1,1.2,3.2,3.2,3.3,6.1c0,0.5,0,1.1-0.1,1.7c-0.1,0.6-0.2,1.2-0.4,1.9L105,19.9c0.1-0.2,0.1-0.4,0.1-0.6c0-0.2,0-0.4,0-0.6
		c0-1.2-0.4-2-1.2-2.5c-0.8-0.5-1.8-0.8-2.9-0.8c-0.1,0-0.2,0-0.3,0c-0.1,0-0.2,0-0.4,0c-1.1,0.1-2.1,0.5-3.1,1.1
		c-1,0.7-1.4,1.5-1.4,2.6c0,1,1,1.9,2.9,2.7c1.9,0.8,4.3,1.5,7,2.1c2.2,0.5,3.9,1.2,5.1,2.2c1.1,1,1.9,2,2.3,3.1
		c0.2,0.5,0.3,1,0.4,1.5c0.1,0.5,0.1,1,0.1,1.5c0,3.6-1.6,6.7-4.8,9.6c-3.2,2.8-7.9,4.3-14.3,4.3c-5.5,0-9.1-1-10.8-2.9
		c-1.7-1.9-2.5-4.1-2.5-6.5c0-0.3,0-0.5,0-0.8c0-0.3,0-0.5,0-0.8c0-0.3,0.1-0.5,0.1-0.8c0-0.3,0.1-0.5,0.1-0.8l10.3-0.1
		c0,0.2-0.1,0.4-0.1,0.6c0,0.2,0,0.4,0,0.5c0,1.3,0.4,2.4,1.1,3.2c0.7,0.8,1.8,1.2,3.4,1.2c0.3,0,0.8,0,1.3-0.1
		c0.5-0.1,1-0.2,1.5-0.4c0.9-0.3,1.7-0.8,2.5-1.4c0.7-0.6,1.1-1.4,1.1-2.4c0-0.1,0-0.1,0-0.2c0-0.1,0-0.2,0-0.2
		c0-0.8-0.6-1.5-1.9-2.1c-1.3-0.6-2.7-1.1-4.2-1.5c-1-0.3-1.9-0.5-2.8-0.8c-0.9-0.2-1.7-0.5-2.3-0.7c0,0-0.1,0-0.1,0
		c-0.1,0-0.1,0-0.1-0.1c0,0,0,0,0,0c0,0,0,0,0,0c-0.3-0.1-0.7-0.3-1.1-0.4c-0.4-0.1-0.8-0.3-1.2-0.4c-1-0.4-1.9-1.2-2.8-2.2
		C85.2,25.1,84.8,23.4,84.8,21.1L84.8,21.1z"/>
	<path fill-rule="evenodd" clip-rule="evenodd" fill="#FFFFFF" d="M257.5,17.6h13.2v1.2h-13.2V17.6z M257.5,44h13.2v1.2h-13.2V44z
		 M257.5,35.2h13.2v1.2h-13.2V35.2z M257.5,26.4h13.2v1.2h-13.2V26.4z M257.5,8.8h13.2V10h-13.2V8.8z"/>
</g>
</svg>
